<?xml version="1.0" encoding="UTF-8" standalone="no"?>
<svg
   version="1.0"
   width="32pt"
   height="32pt"
   viewBox="0 0 32 32"
   preserveAspectRatio="xMidYMid"
   id="svg5"
   xmlns="http://www.w3.org/2000/svg"
   xmlns:svg="http://www.w3.org/2000/svg">
  <defs
     id="defs5" />
  <g
     transform="matrix(0.00831875,0,0,-0.00831875,-26.368852,59.345146)"
     fill="#000000"
     stroke="none"
     id="g5"
     style="fill:#4bae4b;fill-opacity:1;image-rendering:auto">
    <path
       d="m 4164,7059 c -269,-41 -505,-235 -590,-484 -36,-107 -44,-258 -19,-371 19,-89 63,-191 120,-280 l 38,-59 1,-170 c 2,-192 13,-240 88,-390 66,-130 201,-282 315,-352 l 45,-28 -6,-70 c -9,-95 10,-337 34,-454 58,-275 214,-617 388,-846 88,-115 163,-194 206,-214 87,-42 178,-14 217,66 29,60 21,101 -33,170 -160,205 -225,352 -274,618 -15,83 -18,140 -15,330 7,485 10,428 -24,477 -26,37 -52,54 -184,120 -84,42 -176,94 -204,116 -171,130 -290,328 -231,386 22,23 43,20 121,-15 189,-86 446,-157 663,-184 158,-20 452,-23 585,-6 240,31 471,91 649,168 120,52 136,55 164,37 30,-20 26,-56 -13,-137 -72,-146 -186,-247 -402,-353 -233,-116 -254,-148 -234,-364 16,-175 14,-413 -4,-539 -40,-271 -119,-457 -271,-638 -74,-88 -81,-156 -21,-222 70,-76 172,-66 270,27 213,203 418,587 512,962 35,139 45,232 45,410 v 158 l 48,28 c 61,36 216,192 266,268 45,68 98,193 122,286 13,51 15,96 12,210 l -4,145 34,53 c 166,261 186,501 60,752 -35,68 -61,104 -138,181 -79,79 -110,102 -180,136 -190,93 -357,104 -554,37 -162,-55 -314,-182 -392,-324 -22,-41 -44,-74 -50,-73 -5,1 -45,9 -89,18 -85,17 -155,15 -255,-10 -30,-8 -55,-13 -55,-12 -82,168 -229,316 -378,382 -112,49 -270,71 -383,54 z m 260,-320 c 83,-32 176,-121 218,-207 31,-62 33,-73 33,-172 0,-98 -2,-110 -32,-173 -128,-270 -497,-335 -691,-122 -95,103 -132,219 -112,346 25,167 151,309 307,349 65,16 211,5 277,-21 z m 1758,-12 c 272,-134 320,-485 94,-684 -176,-155 -438,-141 -593,32 -208,232 -109,582 192,682 25,8 76,12 136,10 88,-2 103,-6 171,-40 z M 5024,5810 c 26,-25 24,-80 -5,-102 -33,-27 -83,-23 -108,8 -25,32 -26,52 -5,82 31,44 79,49 118,12 z m 319,-2 c 40,-47 5,-118 -58,-118 -77,0 -102,111 -32,140 30,13 69,3 90,-22 z"
       id="path1"
       style="fill:#4bae4b;fill-opacity:1" />
    <path
       d="m 4171,6503 c -113,-56 -113,-240 1,-299 43,-23 113,-22 161,1 117,56 122,229 9,293 -48,27 -122,29 -171,5 z"
       id="path2"
       style="fill:#4bae4b;fill-opacity:1" />
    <path
       d="m 5904,6495 c -50,-29 -74,-76 -74,-140 0,-78 50,-142 128,-166 72,-21 168,26 198,98 63,150 -110,293 -252,208 z"
       id="path3"
       style="fill:#4bae4b;fill-opacity:1" />
    <path
       d="m 3653,4911 c -100,-34 -175,-107 -208,-202 -26,-73 -20,-194 16,-301 63,-195 211,-462 343,-623 l 58,-70 -115,-5 c -105,-5 -118,-8 -163,-36 -69,-42 -96,-92 -92,-170 4,-74 38,-126 102,-155 38,-17 71,-19 417,-19 388,0 399,1 399,41 0,9 -31,55 -69,102 -165,205 -294,478 -370,782 -29,118 -50,281 -56,448 -3,82 -10,157 -16,168 -28,54 -150,73 -246,40 z"
       id="path4"
       style="fill:#4bae4b;fill-opacity:1" />
    <path
       d="m 6433,4921 c -47,-12 -82,-38 -87,-64 -3,-12 -7,-94 -10,-182 -13,-444 -191,-930 -456,-1244 -44,-52 -50,-75 -21,-91 13,-6 154,-10 393,-10 420,0 428,2 484,76 26,33 29,46 29,109 0,63 -3,76 -28,108 -47,62 -95,81 -223,85 l -112,4 58,77 c 211,281 370,620 370,788 0,87 -21,160 -63,215 -42,54 -107,104 -155,118 -53,15 -142,20 -179,11 z"
       id="path5"
       style="fill:#4bae4b;fill-opacity:1" />
  </g>
</svg> 